<?xml version="1.0" standalone="no"?>
<!DOCTYPE svg PUBLIC "-//W3C//DTD SVG 20010904//EN"
 "http://www.w3.org/TR/2001/REC-SVG-20010904/DTD/svg10.dtd">
<svg version="1.0" xmlns="http://www.w3.org/2000/svg"
 width="550.000000pt" height="550.000000pt" viewBox="0 0 550.000000 550.000000"
 preserveAspectRatio="xMidYMid meet">
<metadata>
Created by potrace 1.14, written by Peter Selinger 2001-2017
</metadata>
<g transform="translate(0.000000,550.000000) scale(0.100000,-0.100000)"
fill="#000000" stroke="none">
<path d="M915 5484 c-234 -41 -461 -164 -616 -333 -152 -164 -250 -363 -284
-575 -23 -138 -22 -3520 0 -3652 80 -471 443 -834 909 -909 138 -23 3520 -22
3652 0 471 80 834 443 909 909 23 138 22 3520 0 3652 -52 304 -218 563 -470
734 -133 90 -283 150 -439 175 -133 22 -3538 21 -3661 -1z m2103 -1276 l232
-51 0 -243 0 -242 283 -4 c239 -4 289 -7 329 -22 66 -25 141 -95 175 -164 l28
-57 3 -342 3 -343 -160 0 -161 0 0 305 0 305 -980 0 -980 0 0 -326 0 -326 23
4 c12 3 232 74 489 158 l467 154 411 -135 412 -134 -201 -5 c-218 -5 -226 -8
-275 -74 -21 -27 -21 -40 -26 -699 l-5 -672 -85 -29 c-112 -38 -269 -47 -387
-21 -146 32 -295 115 -433 242 l-65 60 -81 -76 c-154 -143 -344 -233 -498
-235 l-79 -1 -139 490 c-189 668 -178 624 -167 677 15 69 50 95 191 143 l123
42 5 419 c5 415 5 420 29 472 29 65 112 143 178 168 41 15 89 18 326 22 l277
3 0 243 0 242 228 51 c125 28 238 52 252 52 14 1 130 -22 258 -51z m1309
-1723 c11 -8 23 -25 27 -38 7 -30 -315 -1163 -338 -1185 -24 -25 -85 -21 -107
7 -11 13 -19 33 -19 45 0 11 73 275 162 585 115 402 168 569 182 582 24 23 64
24 93 4z m-542 -328 c8 -12 15 -36 15 -54 0 -30 -10 -40 -122 -124 -68 -51
-127 -95 -131 -99 -4 -4 45 -46 110 -95 65 -48 124 -95 131 -103 6 -9 12 -30
12 -48 0 -37 -38 -74 -76 -74 -23 0 -330 219 -366 262 -27 31 -23 80 10 110
45 42 311 238 334 247 31 11 66 2 83 -22z"/>
</g>
</svg>
